# xmcd CD database file
#
# Track frame offsets:
#	150
#	28792
#	61012
#	90957
#	121822
#	143687
#	171082
#	194385
#	225272
#	257037
#
# Disc length: 3813 seconds
#
# Revision: 0
# Processed by: cddbd v1.5.1PL0 Copyright (c) Steve Scherf et al.
# Submitted via: CDex 1.51
#
DISCID=730ee30a
DTITLE=Greg Hopkins Quintet - Quintology
DYEAR=1900
DGENRE=Jazz
TTITLE0=Quintology
TTITLE1=Boon Moon
TTITLE2=The Pignoli Letters
TTITLE3=Hidden Agenda
TTITLE4=Here's to my lady
TTITLE5=Double talk (for KD)
TTITLE6=Waltz for Charlie
TTITLE7=Scooter
TTITLE8=Bas Relief
TTITLE9=Creckdown
EXTD=
EXTT0=
EXTT1=
EXTT2=
EXTT3=
EXTT4=
EXTT5=
EXTT6=
EXTT7=
EXTT8=
EXTT9=
PLAYORDER=
